<svg width="20" height="22" viewBox="0 0 20 22" fill="none" xmlns="http://www.w3.org/2000/svg">
<path fill-rule="evenodd" clip-rule="evenodd" d="M10.1882 1.52841C10.0431 1.48181 9.88452 1.49311 9.74978 1.55804C9.60225 1.62913 9.50476 1.7532 9.46973 1.88821L8.99403 3.72206C8.82766 4.36339 8.58545 4.98198 8.27348 5.56599C7.78916 6.47267 7.05632 7.17 6.37647 7.75585L4.93773 8.99564C4.71475 9.18779 4.5974 9.47582 4.62282 9.76979L5.43498 19.1625C5.47601 19.637 5.87244 20 6.34635 20H10.995C14.1313 20 16.7738 17.8177 17.2806 14.8871L17.9861 10.8074C18.0832 10.2459 17.6514 9.7342 17.0848 9.7342H11.9037C10.9266 9.7342 10.1844 8.85756 10.3421 7.89471L11.0048 3.85015C11.0956 3.29613 11.0697 2.72923 10.9287 2.18584C10.8572 1.91009 10.6396 1.67342 10.3332 1.57498L10.1882 1.52841L10.4176 0.814353L10.1882 1.52841ZM9.09862 0.206744C9.58121 -0.0258035 10.1373 -0.0634559 10.647 0.100294L10.792 0.146865L10.5626 0.860924L10.792 0.146865C11.569 0.396478 12.1752 1.01719 12.3807 1.8092C12.5741 2.55477 12.6096 3.33256 12.4851 4.09268L11.8224 8.13724C11.8139 8.189 11.8538 8.2342 11.9037 8.2342H17.0848C18.5841 8.2342 19.7195 9.58651 19.4642 11.063L18.7587 15.1428C18.1208 18.831 14.8212 21.5 10.995 21.5H6.34635C5.0927 21.5 4.04852 20.5402 3.94056 19.2917L3.1284 9.89901C3.06149 9.12529 3.37022 8.36631 3.95855 7.85933L5.39729 6.61954C6.0525 6.05492 6.60404 5.50767 6.95042 4.85924C7.20699 4.37892 7.40573 3.87107 7.54208 3.34542L8.01779 1.51157C8.16702 0.936266 8.56664 0.463093 9.09862 0.206744ZM0.717665 8.2349C1.11893 8.21758 1.46261 8.51945 1.49721 8.91959L2.46881 20.1561C2.53122 20.8779 1.96268 21.5 1.23671 21.5C0.55289 21.5 0 20.9453 0 20.2627V8.9842C0 8.58256 0.316401 8.25221 0.717665 8.2349Z" fill="#BDC1C6"/>
</svg>
