<svg width="22" height="22" viewBox="0 0 22 22" fill="none" xmlns="http://www.w3.org/2000/svg">
<path fill-rule="evenodd" clip-rule="evenodd" d="M9.8248 6.25835C8.49622 5.47395 7 6.54065 7 7.96316V13.5368C7 14.9593 8.49622 16.026 9.8248 15.2416L14.545 12.4548C15.8183 11.703 15.8183 9.79699 14.545 9.0452L9.8248 6.25835ZM8.5 7.96316C8.5 7.76468 8.59615 7.62585 8.70947 7.55498C8.81914 7.48641 8.94185 7.47898 9.06218 7.55003L13.7824 10.3369C13.915 10.4152 14 10.5648 14 10.75C14 10.9352 13.915 11.0848 13.7824 11.1631L9.06218 13.95C8.94186 14.021 8.81914 14.0136 8.70947 13.945C8.59615 13.8742 8.5 13.7353 8.5 13.5368V7.96316Z" fill="white"/>
<path fill-rule="evenodd" clip-rule="evenodd" d="M10.75 0C4.81294 0 0 4.81294 0 10.75C0 16.6871 4.81294 21.5 10.75 21.5C16.6871 21.5 21.5 16.6871 21.5 10.75C21.5 4.81294 16.6871 0 10.75 0ZM1.5 10.75C1.5 5.64137 5.64137 1.5 10.75 1.5C15.8586 1.5 20 5.64137 20 10.75C20 15.8586 15.8586 20 10.75 20C5.64137 20 1.5 15.8586 1.5 10.75Z" fill="white"/>
</svg>
